<svg xmlns="http://www.w3.org/2000/svg" xmlns:xlink="http://www.w3.org/1999/xlink" width="2000" zoomAndPan="magnify" viewBox="0 0 1500 225" height="300" preserveAspectRatio="xMidYMid meet" version="1.0"><defs><linearGradient x1="1000" gradientTransform="matrix(0.75, 0, 0, 0.75, 0, 0.00001)" y1="-0" x2="1000" gradientUnits="userSpaceOnUse" y2="299.999987" id="021b72befd"><stop stop-opacity="1" stop-color="rgb(0%, 28.999329%, 67.799377%)" offset="0"/><stop stop-opacity="1" stop-color="rgb(0%, 29.470825%, 67.829895%)" offset="0.00390625"/><stop stop-opacity="1" stop-color="rgb(0%, 29.942322%, 67.861938%)" offset="0.0078125"/><stop stop-opacity="1" stop-color="rgb(0%, 30.413818%, 67.892456%)" offset="0.0117188"/><stop stop-opacity="1" stop-color="rgb(0%, 30.886841%, 67.9245%)" offset="0.015625"/><stop stop-opacity="1" stop-color="rgb(0%, 31.358337%, 67.955017%)" offset="0.0195312"/><stop stop-opacity="1" stop-color="rgb(0%, 31.829834%, 67.987061%)" offset="0.0234375"/><stop stop-opacity="1" stop-color="rgb(0%, 32.301331%, 68.017578%)" offset="0.0273438"/><stop stop-opacity="1" stop-color="rgb(0%, 32.774353%, 68.049622%)" offset="0.03125"/><stop stop-opacity="1" stop-color="rgb(0%, 33.24585%, 68.080139%)" offset="0.0351562"/><stop stop-opacity="1" stop-color="rgb(0%, 33.717346%, 68.112183%)" offset="0.0390625"/><stop stop-opacity="1" stop-color="rgb(0%, 34.188843%, 68.1427%)" offset="0.0429688"/><stop stop-opacity="1" stop-color="rgb(0%, 34.661865%, 68.174744%)" offset="0.046875"/><stop stop-opacity="1" stop-color="rgb(0%, 35.133362%, 68.205261%)" offset="0.0507812"/><stop stop-opacity="1" stop-color="rgb(0%, 35.604858%, 68.237305%)" offset="0.0546875"/><stop stop-opacity="1" stop-color="rgb(0%, 36.076355%, 68.267822%)" offset="0.0585938"/><stop stop-opacity="1" stop-color="rgb(0%, 36.549377%, 68.299866%)" offset="0.0625"/><stop stop-opacity="1" stop-color="rgb(0%, 37.020874%, 68.330383%)" offset="0.0664062"/><stop stop-opacity="1" stop-color="rgb(0%, 37.492371%, 68.362427%)" offset="0.0703125"/><stop stop-opacity="1" stop-color="rgb(0%, 37.963867%, 68.392944%)" offset="0.0742188"/><stop stop-opacity="1" stop-color="rgb(0%, 38.43689%, 68.424988%)" offset="0.078125"/><stop stop-opacity="1" stop-color="rgb(0%, 38.908386%, 68.455505%)" offset="0.0820312"/><stop stop-opacity="1" stop-color="rgb(0%, 39.379883%, 68.486023%)" offset="0.0859375"/><stop stop-opacity="1" stop-color="rgb(0%, 39.851379%, 68.516541%)" offset="0.0898438"/><stop stop-opacity="1" stop-color="rgb(0%, 40.324402%, 68.548584%)" offset="0.09375"/><stop stop-opacity="1" stop-color="rgb(0%, 40.795898%, 68.579102%)" offset="0.0976562"/><stop stop-opacity="1" stop-color="rgb(0%, 41.267395%, 68.611145%)" offset="0.101562"/><stop stop-opacity="1" stop-color="rgb(0%, 41.738892%, 68.641663%)" offset="0.105469"/><stop stop-opacity="1" stop-color="rgb(0%, 42.211914%, 68.673706%)" offset="0.109375"/><stop stop-opacity="1" stop-color="rgb(0%, 42.683411%, 68.704224%)" offset="0.113281"/><stop stop-opacity="1" stop-color="rgb(0%, 43.154907%, 68.736267%)" offset="0.117188"/><stop stop-opacity="1" stop-color="rgb(0%, 43.626404%, 68.766785%)" offset="0.121094"/><stop stop-opacity="1" stop-color="rgb(0%, 44.099426%, 68.798828%)" offset="0.125"/><stop stop-opacity="1" stop-color="rgb(0%, 44.570923%, 68.829346%)" offset="0.128906"/><stop stop-opacity="1" stop-color="rgb(0%, 45.042419%, 68.861389%)" offset="0.132812"/><stop stop-opacity="1" stop-color="rgb(0%, 45.513916%, 68.891907%)" offset="0.136719"/><stop stop-opacity="1" stop-color="rgb(0%, 45.986938%, 68.92395%)" offset="0.140625"/><stop stop-opacity="1" stop-color="rgb(0%, 46.458435%, 68.954468%)" offset="0.144531"/><stop stop-opacity="1" stop-color="rgb(0%, 46.929932%, 68.986511%)" offset="0.148438"/><stop stop-opacity="1" stop-color="rgb(0%, 47.401428%, 69.017029%)" offset="0.152344"/><stop stop-opacity="1" stop-color="rgb(0%, 47.874451%, 69.049072%)" offset="0.15625"/><stop stop-opacity="1" stop-color="rgb(0%, 48.345947%, 69.07959%)" offset="0.160156"/><stop stop-opacity="1" stop-color="rgb(0%, 48.817444%, 69.111633%)" offset="0.164062"/><stop stop-opacity="1" stop-color="rgb(0%, 49.28894%, 69.142151%)" offset="0.167969"/><stop stop-opacity="1" stop-color="rgb(0%, 49.761963%, 69.174194%)" offset="0.171875"/><stop stop-opacity="1" stop-color="rgb(0%, 50.233459%, 69.204712%)" offset="0.175781"/><stop stop-opacity="1" stop-color="rgb(0%, 50.704956%, 69.236755%)" offset="0.179688"/><stop stop-opacity="1" stop-color="rgb(0%, 51.176453%, 69.267273%)" offset="0.183594"/><stop stop-opacity="1" stop-color="rgb(0%, 51.649475%, 69.299316%)" offset="0.1875"/><stop stop-opacity="1" stop-color="rgb(0%, 52.120972%, 69.329834%)" offset="0.191406"/><stop stop-opacity="1" stop-color="rgb(0%, 52.592468%, 69.361877%)" offset="0.195312"/><stop stop-opacity="1" stop-color="rgb(0%, 53.063965%, 69.392395%)" offset="0.199219"/><stop stop-opacity="1" stop-color="rgb(0%, 53.536987%, 69.424438%)" offset="0.203125"/><stop stop-opacity="1" stop-color="rgb(0%, 54.008484%, 69.454956%)" offset="0.207031"/><stop stop-opacity="1" stop-color="rgb(0%, 54.47998%, 69.487%)" offset="0.210938"/><stop stop-opacity="1" stop-color="rgb(0%, 54.951477%, 69.517517%)" offset="0.214844"/><stop stop-opacity="1" stop-color="rgb(0%, 55.4245%, 69.549561%)" offset="0.21875"/><stop stop-opacity="1" stop-color="rgb(0%, 55.895996%, 69.580078%)" offset="0.222656"/><stop stop-opacity="1" stop-color="rgb(0%, 56.367493%, 69.612122%)" offset="0.226562"/><stop stop-opacity="1" stop-color="rgb(0%, 56.838989%, 69.642639%)" offset="0.230469"/><stop stop-opacity="1" stop-color="rgb(0%, 57.312012%, 69.674683%)" offset="0.234375"/><stop stop-opacity="1" stop-color="rgb(0%, 57.783508%, 69.7052%)" offset="0.238281"/><stop stop-opacity="1" stop-color="rgb(0%, 58.255005%, 69.737244%)" offset="0.242188"/><stop stop-opacity="1" stop-color="rgb(0%, 58.726501%, 69.767761%)" offset="0.246094"/><stop stop-opacity="1" stop-color="rgb(0%, 59.199524%, 69.799805%)" offset="0.25"/><stop stop-opacity="1" stop-color="rgb(0.286865%, 59.469604%, 70.063782%)" offset="0.253906"/><stop stop-opacity="1" stop-color="rgb(0.57373%, 59.739685%, 70.327759%)" offset="0.257812"/><stop stop-opacity="1" stop-color="rgb(0.860596%, 60.009766%, 70.591736%)" offset="0.261719"/><stop stop-opacity="1" stop-color="rgb(1.148987%, 60.279846%, 70.855713%)" offset="0.265625"/><stop stop-opacity="1" stop-color="rgb(1.435852%, 60.549927%, 71.11969%)" offset="0.269531"/><stop stop-opacity="1" stop-color="rgb(1.724243%, 60.821533%, 71.383667%)" offset="0.273437"/><stop stop-opacity="1" stop-color="rgb(2.011108%, 61.091614%, 71.647644%)" offset="0.277344"/><stop stop-opacity="1" stop-color="rgb(2.2995%, 61.361694%, 71.911621%)" offset="0.28125"/><stop stop-opacity="1" stop-color="rgb(2.586365%, 61.631775%, 72.175598%)" offset="0.285156"/><stop stop-opacity="1" stop-color="rgb(2.874756%, 61.901855%, 72.439575%)" offset="0.289062"/><stop stop-opacity="1" stop-color="rgb(3.161621%, 62.171936%, 72.703552%)" offset="0.292969"/><stop stop-opacity="1" stop-color="rgb(3.448486%, 62.443542%, 72.967529%)" offset="0.296875"/><stop stop-opacity="1" stop-color="rgb(3.735352%, 62.713623%, 73.231506%)" offset="0.300781"/><stop stop-opacity="1" stop-color="rgb(4.023743%, 62.983704%, 73.495483%)" offset="0.304687"/><stop stop-opacity="1" stop-color="rgb(4.310608%, 63.253784%, 73.75946%)" offset="0.308594"/><stop stop-opacity="1" stop-color="rgb(4.598999%, 63.523865%, 74.024963%)" offset="0.3125"/><stop stop-opacity="1" stop-color="rgb(4.885864%, 63.793945%, 74.28894%)" offset="0.316406"/><stop stop-opacity="1" stop-color="rgb(5.174255%, 64.065552%, 74.552917%)" offset="0.320312"/><stop stop-opacity="1" stop-color="rgb(5.461121%, 64.335632%, 74.816895%)" offset="0.324219"/><stop stop-opacity="1" stop-color="rgb(5.749512%, 64.605713%, 75.080872%)" offset="0.328125"/><stop stop-opacity="1" stop-color="rgb(6.036377%, 64.875793%, 75.344849%)" offset="0.332031"/><stop stop-opacity="1" stop-color="rgb(6.324768%, 65.145874%, 75.608826%)" offset="0.335937"/><stop stop-opacity="1" stop-color="rgb(6.611633%, 65.415955%, 75.872803%)" offset="0.339844"/><stop stop-opacity="1" stop-color="rgb(6.898499%, 65.686035%, 76.13678%)" offset="0.34375"/><stop stop-opacity="1" stop-color="rgb(7.185364%, 65.956116%, 76.400757%)" offset="0.347656"/><stop stop-opacity="1" stop-color="rgb(7.473755%, 66.227722%, 76.664734%)" offset="0.351562"/><stop stop-opacity="1" stop-color="rgb(7.76062%, 66.497803%, 76.928711%)" offset="0.355469"/><stop stop-opacity="1" stop-color="rgb(8.049011%, 66.767883%, 77.192688%)" offset="0.359375"/><stop stop-opacity="1" stop-color="rgb(8.335876%, 67.037964%, 77.456665%)" offset="0.363281"/><stop stop-opacity="1" stop-color="rgb(8.624268%, 67.308044%, 77.720642%)" offset="0.367187"/><stop stop-opacity="1" stop-color="rgb(8.911133%, 67.578125%, 77.984619%)" offset="0.371094"/><stop stop-opacity="1" stop-color="rgb(9.199524%, 67.849731%, 78.248596%)" offset="0.375"/><stop stop-opacity="1" stop-color="rgb(9.486389%, 68.119812%, 78.512573%)" offset="0.378906"/><stop stop-opacity="1" stop-color="rgb(9.77478%, 68.389893%, 78.778076%)" offset="0.382812"/><stop stop-opacity="1" stop-color="rgb(10.061646%, 68.659973%, 79.042053%)" offset="0.386719"/><stop stop-opacity="1" stop-color="rgb(10.348511%, 68.930054%, 79.30603%)" offset="0.390625"/><stop stop-opacity="1" stop-color="rgb(10.635376%, 69.200134%, 79.570007%)" offset="0.394531"/><stop stop-opacity="1" stop-color="rgb(10.923767%, 69.471741%, 79.833984%)" offset="0.398437"/><stop stop-opacity="1" stop-color="rgb(11.210632%, 69.741821%, 80.097961%)" offset="0.402344"/><stop stop-opacity="1" stop-color="rgb(11.499023%, 70.011902%, 80.361938%)" offset="0.40625"/><stop stop-opacity="1" stop-color="rgb(11.785889%, 70.281982%, 80.625916%)" offset="0.410156"/><stop stop-opacity="1" stop-color="rgb(12.07428%, 70.552063%, 80.889893%)" offset="0.414062"/><stop stop-opacity="1" stop-color="rgb(12.361145%, 70.822144%, 81.15387%)" offset="0.417969"/><stop stop-opacity="1" stop-color="rgb(12.649536%, 71.092224%, 81.417847%)" offset="0.421875"/><stop stop-opacity="1" stop-color="rgb(12.936401%, 71.362305%, 81.681824%)" offset="0.425781"/><stop stop-opacity="1" stop-color="rgb(13.224792%, 71.633911%, 81.945801%)" offset="0.429687"/><stop stop-opacity="1" stop-color="rgb(13.511658%, 71.903992%, 82.209778%)" offset="0.433594"/><stop stop-opacity="1" stop-color="rgb(13.798523%, 72.174072%, 82.473755%)" offset="0.4375"/><stop stop-opacity="1" stop-color="rgb(14.085388%, 72.444153%, 82.737732%)" offset="0.441406"/><stop stop-opacity="1" stop-color="rgb(14.373779%, 72.714233%, 83.001709%)" offset="0.445312"/><stop stop-opacity="1" stop-color="rgb(14.660645%, 72.984314%, 83.265686%)" offset="0.449219"/><stop stop-opacity="1" stop-color="rgb(14.949036%, 73.25592%, 83.531189%)" offset="0.453125"/><stop stop-opacity="1" stop-color="rgb(15.235901%, 73.526001%, 83.795166%)" offset="0.457031"/><stop stop-opacity="1" stop-color="rgb(15.524292%, 73.796082%, 84.059143%)" offset="0.460937"/><stop stop-opacity="1" stop-color="rgb(15.811157%, 74.066162%, 84.32312%)" offset="0.464844"/><stop stop-opacity="1" stop-color="rgb(16.099548%, 74.336243%, 84.587097%)" offset="0.46875"/><stop stop-opacity="1" stop-color="rgb(16.386414%, 74.606323%, 84.851074%)" offset="0.472656"/><stop stop-opacity="1" stop-color="rgb(16.674805%, 74.87793%, 85.115051%)" offset="0.476562"/><stop stop-opacity="1" stop-color="rgb(16.96167%, 75.14801%, 85.379028%)" offset="0.480469"/><stop stop-opacity="1" stop-color="rgb(17.248535%, 75.418091%, 85.643005%)" offset="0.484375"/><stop stop-opacity="1" stop-color="rgb(17.5354%, 75.688171%, 85.906982%)" offset="0.488281"/><stop stop-opacity="1" stop-color="rgb(17.823792%, 75.958252%, 86.170959%)" offset="0.492187"/><stop stop-opacity="1" stop-color="rgb(18.110657%, 76.228333%, 86.434937%)" offset="0.496094"/><stop stop-opacity="1" stop-color="rgb(18.399048%, 76.499939%, 86.698914%)" offset="0.5"/><stop stop-opacity="1" stop-color="rgb(19.599915%, 76.835632%, 86.882019%)" offset="0.503906"/><stop stop-opacity="1" stop-color="rgb(20.802307%, 77.171326%, 87.065125%)" offset="0.507812"/><stop stop-opacity="1" stop-color="rgb(22.003174%, 77.507019%, 87.246704%)" offset="0.511719"/><stop stop-opacity="1" stop-color="rgb(23.205566%, 77.842712%, 87.42981%)" offset="0.515625"/><stop stop-opacity="1" stop-color="rgb(24.406433%, 78.178406%, 87.612915%)" offset="0.519531"/><stop stop-opacity="1" stop-color="rgb(25.608826%, 78.514099%, 87.796021%)" offset="0.523438"/><stop stop-opacity="1" stop-color="rgb(26.809692%, 78.849792%, 87.979126%)" offset="0.527344"/><stop stop-opacity="1" stop-color="rgb(28.012085%, 79.187012%, 88.162231%)" offset="0.53125"/><stop stop-opacity="1" stop-color="rgb(29.212952%, 79.522705%, 88.343811%)" offset="0.535156"/><stop stop-opacity="1" stop-color="rgb(30.415344%, 79.858398%, 88.526917%)" offset="0.539062"/><stop stop-opacity="1" stop-color="rgb(31.616211%, 80.194092%, 88.710022%)" offset="0.542969"/><stop stop-opacity="1" stop-color="rgb(32.818604%, 80.529785%, 88.893127%)" offset="0.546875"/><stop stop-opacity="1" stop-color="rgb(34.01947%, 80.865479%, 89.076233%)" offset="0.550781"/><stop stop-opacity="1" stop-color="rgb(35.221863%, 81.202698%, 89.259338%)" offset="0.554687"/><stop stop-opacity="1" stop-color="rgb(36.422729%, 81.538391%, 89.440918%)" offset="0.558594"/><stop stop-opacity="1" stop-color="rgb(37.623596%, 81.874084%, 89.624023%)" offset="0.5625"/><stop stop-opacity="1" stop-color="rgb(38.824463%, 82.209778%, 89.807129%)" offset="0.566406"/><stop stop-opacity="1" stop-color="rgb(40.026855%, 82.545471%, 89.990234%)" offset="0.570312"/><stop stop-opacity="1" stop-color="rgb(41.227722%, 82.881165%, 90.171814%)" offset="0.574219"/><stop stop-opacity="1" stop-color="rgb(42.430115%, 83.218384%, 90.354919%)" offset="0.578125"/><stop stop-opacity="1" stop-color="rgb(43.630981%, 83.554077%, 90.538025%)" offset="0.582031"/><stop stop-opacity="1" stop-color="rgb(44.833374%, 83.889771%, 90.72113%)" offset="0.585938"/><stop stop-opacity="1" stop-color="rgb(46.034241%, 84.225464%, 90.904236%)" offset="0.589844"/><stop stop-opacity="1" stop-color="rgb(47.236633%, 84.561157%, 91.087341%)" offset="0.59375"/><stop stop-opacity="1" stop-color="rgb(48.4375%, 84.896851%, 91.268921%)" offset="0.597656"/><stop stop-opacity="1" stop-color="rgb(49.639893%, 85.23407%, 91.452026%)" offset="0.601562"/><stop stop-opacity="1" stop-color="rgb(50.840759%, 85.569763%, 91.635132%)" offset="0.605469"/><stop stop-opacity="1" stop-color="rgb(52.043152%, 85.905457%, 91.818237%)" offset="0.609375"/><stop stop-opacity="1" stop-color="rgb(53.244019%, 86.24115%, 91.999817%)" offset="0.613281"/><stop stop-opacity="1" stop-color="rgb(54.446411%, 86.576843%, 92.182922%)" offset="0.617187"/><stop stop-opacity="1" stop-color="rgb(55.647278%, 86.912537%, 92.366028%)" offset="0.621094"/><stop stop-opacity="1" stop-color="rgb(56.84967%, 87.249756%, 92.549133%)" offset="0.625"/><stop stop-opacity="1" stop-color="rgb(58.050537%, 87.585449%, 92.732239%)" offset="0.628906"/><stop stop-opacity="1" stop-color="rgb(59.25293%, 87.921143%, 92.915344%)" offset="0.632812"/><stop stop-opacity="1" stop-color="rgb(60.453796%, 88.256836%, 93.096924%)" offset="0.636719"/><stop stop-opacity="1" stop-color="rgb(61.656189%, 88.592529%, 93.280029%)" offset="0.640625"/><stop stop-opacity="1" stop-color="rgb(62.857056%, 88.928223%, 93.463135%)" offset="0.644531"/><stop stop-opacity="1" stop-color="rgb(64.057922%, 89.265442%, 93.64624%)" offset="0.648438"/><stop stop-opacity="1" stop-color="rgb(65.258789%, 89.601135%, 93.829346%)" offset="0.652344"/><stop stop-opacity="1" stop-color="rgb(66.461182%, 89.936829%, 94.012451%)" offset="0.65625"/><stop stop-opacity="1" stop-color="rgb(67.662048%, 90.272522%, 94.194031%)" offset="0.660156"/><stop stop-opacity="1" stop-color="rgb(68.864441%, 90.608215%, 94.377136%)" offset="0.664062"/><stop stop-opacity="1" stop-color="rgb(70.065308%, 90.943909%, 94.560242%)" offset="0.667969"/><stop stop-opacity="1" stop-color="rgb(71.2677%, 91.281128%, 94.743347%)" offset="0.671875"/><stop stop-opacity="1" stop-color="rgb(72.468567%, 91.616821%, 94.924927%)" offset="0.675781"/><stop stop-opacity="1" stop-color="rgb(73.670959%, 91.952515%, 95.108032%)" offset="0.679687"/><stop stop-opacity="1" stop-color="rgb(74.871826%, 92.288208%, 95.291138%)" offset="0.683594"/><stop stop-opacity="1" stop-color="rgb(76.074219%, 92.623901%, 95.474243%)" offset="0.6875"/><stop stop-opacity="1" stop-color="rgb(77.275085%, 92.959595%, 95.657349%)" offset="0.691406"/><stop stop-opacity="1" stop-color="rgb(78.477478%, 93.296814%, 95.840454%)" offset="0.695312"/><stop stop-opacity="1" stop-color="rgb(79.678345%, 93.632507%, 96.022034%)" offset="0.699219"/><stop stop-opacity="1" stop-color="rgb(80.880737%, 93.968201%, 96.205139%)" offset="0.703125"/><stop stop-opacity="1" stop-color="rgb(82.081604%, 94.303894%, 96.388245%)" offset="0.707031"/><stop stop-opacity="1" stop-color="rgb(83.283997%, 94.639587%, 96.57135%)" offset="0.710938"/><stop stop-opacity="1" stop-color="rgb(84.484863%, 94.975281%, 96.75293%)" offset="0.714844"/><stop stop-opacity="1" stop-color="rgb(85.687256%, 95.310974%, 96.936035%)" offset="0.71875"/><stop stop-opacity="1" stop-color="rgb(86.888123%, 95.646667%, 97.119141%)" offset="0.722656"/><stop stop-opacity="1" stop-color="rgb(88.090515%, 95.983887%, 97.302246%)" offset="0.726562"/><stop stop-opacity="1" stop-color="rgb(89.291382%, 96.31958%, 97.485352%)" offset="0.730469"/><stop stop-opacity="1" stop-color="rgb(90.492249%, 96.655273%, 97.668457%)" offset="0.734375"/><stop stop-opacity="1" stop-color="rgb(91.693115%, 96.990967%, 97.850037%)" offset="0.738281"/><stop stop-opacity="1" stop-color="rgb(92.895508%, 97.32666%, 98.033142%)" offset="0.742187"/><stop stop-opacity="1" stop-color="rgb(94.096375%, 97.662354%, 98.216248%)" offset="0.746094"/><stop stop-opacity="1" stop-color="rgb(95.298767%, 97.999573%, 98.399353%)" offset="0.75"/><stop stop-opacity="1" stop-color="rgb(95.298767%, 97.999573%, 98.399353%)" offset="1"/></linearGradient><clipPath id="380f40c4a4"><path d="M 16 0 L 54.382812 0 L 54.382812 32 L 16 32 Z M 16 0 " clip-rule="nonzero"/></clipPath><clipPath id="d84eb25c99"><path d="M 16 0 L 54.382812 0 L 54.382812 45 L 16 45 Z M 16 0 " clip-rule="nonzero"/></clipPath><clipPath id="93fa4b975e"><path d="M 1473 97 L 1479 97 L 1479 103 L 1473 103 Z M 1473 97 " clip-rule="nonzero"/></clipPath><clipPath id="f64d665b09"><path d="M 1527.300781 155.507812 L 1457.8125 161.554688 L 1446.238281 28.558594 L 1515.726562 22.511719 Z M 1527.300781 155.507812 " clip-rule="nonzero"/></clipPath><clipPath id="d3276b0b4f"><path d="M 1527.300781 155.507812 L 1457.8125 161.554688 L 1446.238281 28.558594 L 1515.726562 22.511719 Z M 1527.300781 155.507812 " clip-rule="nonzero"/></clipPath><clipPath id="dc55c8ba6a"><path d="M 1481 63 L 1500 63 L 1500 93 L 1481 93 Z M 1481 63 " clip-rule="nonzero"/></clipPath><clipPath id="15a7558b1f"><path d="M 1527.300781 155.507812 L 1457.8125 161.554688 L 1446.238281 28.558594 L 1515.726562 22.511719 Z M 1527.300781 155.507812 " clip-rule="nonzero"/></clipPath><clipPath id="f7ddefac44"><path d="M 1527.300781 155.507812 L 1457.8125 161.554688 L 1446.238281 28.558594 L 1515.726562 22.511719 Z M 1527.300781 155.507812 " clip-rule="nonzero"/></clipPath><clipPath id="7b7ea84f97"><path d="M 1454 106 L 1496 106 L 1496 159 L 1454 159 Z M 1454 106 " clip-rule="nonzero"/></clipPath><clipPath id="d91ae3aa9a"><path d="M 1527.300781 155.507812 L 1457.8125 161.554688 L 1446.238281 28.558594 L 1515.726562 22.511719 Z M 1527.300781 155.507812 " clip-rule="nonzero"/></clipPath><clipPath id="7989949bbc"><path d="M 1527.300781 155.507812 L 1457.8125 161.554688 L 1446.238281 28.558594 L 1515.726562 22.511719 Z M 1527.300781 155.507812 " clip-rule="nonzero"/></clipPath><clipPath id="8ca791f8cb"><path d="M 1472 83 L 1478 83 L 1478 89 L 1472 89 Z M 1472 83 " clip-rule="nonzero"/></clipPath><clipPath id="ebd4b2ccc5"><path d="M 1527.300781 155.507812 L 1457.8125 161.554688 L 1446.238281 28.558594 L 1515.726562 22.511719 Z M 1527.300781 155.507812 " clip-rule="nonzero"/></clipPath><clipPath id="b92d94f5b0"><path d="M 1527.300781 155.507812 L 1457.8125 161.554688 L 1446.238281 28.558594 L 1515.726562 22.511719 Z M 1527.300781 155.507812 " clip-rule="nonzero"/></clipPath><clipPath id="b33704ce73"><path d="M 1480 49 L 1500 49 L 1500 80 L 1480 80 Z M 1480 49 " clip-rule="nonzero"/></clipPath><clipPath id="4bfca1eff3"><path d="M 1527.300781 155.507812 L 1457.8125 161.554688 L 1446.238281 28.558594 L 1515.726562 22.511719 Z M 1527.300781 155.507812 " clip-rule="nonzero"/></clipPath><clipPath id="56f793754d"><path d="M 1527.300781 155.507812 L 1457.8125 161.554688 L 1446.238281 28.558594 L 1515.726562 22.511719 Z M 1527.300781 155.507812 " clip-rule="nonzero"/></clipPath><clipPath id="1f34ca01ab"><path d="M 1453 93 L 1495 93 L 1495 145 L 1453 145 Z M 1453 93 " clip-rule="nonzero"/></clipPath><clipPath id="2abba0779d"><path d="M 1527.300781 155.507812 L 1457.8125 161.554688 L 1446.238281 28.558594 L 1515.726562 22.511719 Z M 1527.300781 155.507812 " clip-rule="nonzero"/></clipPath><clipPath id="d1859c8dec"><path d="M 1527.300781 155.507812 L 1457.8125 161.554688 L 1446.238281 28.558594 L 1515.726562 22.511719 Z M 1527.300781 155.507812 " clip-rule="nonzero"/></clipPath><clipPath id="5862190e29"><path d="M 1471 69 L 1477 69 L 1477 75 L 1471 75 Z M 1471 69 " clip-rule="nonzero"/></clipPath><clipPath id="89c70ce895"><path d="M 1527.300781 155.507812 L 1457.8125 161.554688 L 1446.238281 28.558594 L 1515.726562 22.511719 Z M 1527.300781 155.507812 " clip-rule="nonzero"/></clipPath><clipPath id="b7aa0befc1"><path d="M 1527.300781 155.507812 L 1457.8125 161.554688 L 1446.238281 28.558594 L 1515.726562 22.511719 Z M 1527.300781 155.507812 " clip-rule="nonzero"/></clipPath><clipPath id="5fb4566469"><path d="M 1479 36 L 1500 36 L 1500 66 L 1479 66 Z M 1479 36 " clip-rule="nonzero"/></clipPath><clipPath id="f46347620b"><path d="M 1527.300781 155.507812 L 1457.8125 161.554688 L 1446.238281 28.558594 L 1515.726562 22.511719 Z M 1527.300781 155.507812 " clip-rule="nonzero"/></clipPath><clipPath id="55104e36f4"><path d="M 1527.300781 155.507812 L 1457.8125 161.554688 L 1446.238281 28.558594 L 1515.726562 22.511719 Z M 1527.300781 155.507812 " clip-rule="nonzero"/></clipPath><clipPath id="86207e1a8f"><path d="M 1452 79 L 1494 79 L 1494 132 L 1452 132 Z M 1452 79 " clip-rule="nonzero"/></clipPath><clipPath id="3e93c82475"><path d="M 1527.300781 155.507812 L 1457.8125 161.554688 L 1446.238281 28.558594 L 1515.726562 22.511719 Z M 1527.300781 155.507812 " clip-rule="nonzero"/></clipPath><clipPath id="1e1729b926"><path d="M 1527.300781 155.507812 L 1457.8125 161.554688 L 1446.238281 28.558594 L 1515.726562 22.511719 Z M 1527.300781 155.507812 " clip-rule="nonzero"/></clipPath></defs><rect x="-150" width="1800" fill="#ffffff" y="-22.5" height="270" fill-opacity="1"/><rect x="-150" fill="url(#021b72befd)" width="1800" y="-22.5" height="270"/><path fill="#e2e2e2" d="M 33.355469 37.722656 C 33.355469 38.054688 33.292969 38.371094 33.167969 38.679688 C 33.039062 38.984375 32.859375 39.253906 32.625 39.488281 C 32.390625 39.722656 32.121094 39.902344 31.816406 40.03125 C 31.511719 40.15625 31.191406 40.21875 30.859375 40.21875 C 30.53125 40.21875 30.210938 40.15625 29.90625 40.03125 C 29.597656 39.902344 29.328125 39.722656 29.09375 39.488281 C 28.859375 39.253906 28.679688 38.984375 28.554688 38.679688 C 28.425781 38.371094 28.363281 38.054688 28.363281 37.722656 C 28.363281 37.390625 28.425781 37.074219 28.554688 36.765625 C 28.679688 36.460938 28.859375 36.191406 29.09375 35.957031 C 29.328125 35.722656 29.597656 35.542969 29.90625 35.417969 C 30.210938 35.289062 30.53125 35.226562 30.859375 35.226562 C 31.191406 35.226562 31.511719 35.289062 31.816406 35.417969 C 32.121094 35.542969 32.390625 35.722656 32.625 35.957031 C 32.859375 36.191406 33.039062 36.460938 33.167969 36.765625 C 33.292969 37.074219 33.355469 37.390625 33.355469 37.722656 Z M 33.355469 37.722656 " fill-opacity="1" fill-rule="nonzero"/><path fill="#e2e2e2" d="M 24.441406 44.230469 L 23.730469 44.9375 L 18.941406 49.726562 L 15.449219 53.222656 C 14.175781 54.492188 12.90625 55.765625 11.640625 57.03125 C 10.371094 58.296875 9.066406 59.605469 7.777344 60.894531 L 4.171875 64.496094 L 1.128906 67.539062 L -1.046875 69.71875 C -1.394531 70.066406 -1.75 70.402344 -2.085938 70.757812 C -2.101562 70.769531 -2.121094 70.789062 -2.132812 70.804688 C -2.441406 71.113281 -1.960938 71.59375 -1.648438 71.285156 L 0.996094 68.640625 L 3.847656 65.785156 L 7.34375 62.292969 L 11.152344 58.484375 C 12.441406 57.195312 13.726562 55.910156 15.015625 54.621094 L 18.617188 51.015625 L 21.664062 47.972656 L 23.839844 45.796875 C 24.1875 45.449219 24.542969 45.113281 24.878906 44.757812 C 24.890625 44.742188 24.910156 44.726562 24.925781 44.710938 C 25.234375 44.402344 24.75 43.917969 24.441406 44.230469 Z M 24.441406 44.230469 " fill-opacity="1" fill-rule="nonzero"/><g clip-path="url(#380f40c4a4)"><path fill="#e2e2e2" d="M 16.804688 -21.695312 L 17.800781 -20.703125 L 20.480469 -18.019531 L 29.316406 -9.183594 C 31.089844 -7.410156 32.859375 -5.640625 34.632812 -3.867188 L 52.257812 13.757812 C 52.738281 14.238281 53.199219 14.746094 53.699219 15.199219 C 53.722656 15.21875 53.738281 15.238281 53.761719 15.261719 L 53.761719 14.78125 L 52.199219 16.34375 L 48.449219 20.089844 L 43.9375 24.605469 L 40.019531 28.523438 C 39.382812 29.15625 38.71875 29.769531 38.113281 30.429688 C 38.105469 30.4375 38.09375 30.445312 38.085938 30.457031 C 37.777344 30.765625 38.257812 31.25 38.570312 30.9375 L 40.132812 29.375 L 43.882812 25.628906 L 48.394531 21.113281 L 52.3125 17.195312 C 52.945312 16.5625 53.613281 15.949219 54.21875 15.289062 C 54.226562 15.28125 54.238281 15.273438 54.246094 15.261719 C 54.378906 15.128906 54.378906 14.910156 54.246094 14.78125 C 53.914062 14.445312 53.582031 14.113281 53.253906 13.785156 L 46.59375 7.125 L 41.734375 2.269531 L 21.820312 -17.644531 L 18.792969 -20.675781 C 18.3125 -21.152344 17.839844 -21.644531 17.351562 -22.113281 C 17.328125 -22.132812 17.3125 -22.15625 17.289062 -22.175781 C 16.980469 -22.488281 16.496094 -22.003906 16.804688 -21.695312 Z M 16.804688 -21.695312 " fill-opacity="1" fill-rule="nonzero"/></g><path fill="#e2e2e2" d="M 33.039062 51.273438 C 33.039062 51.601562 32.976562 51.921875 32.847656 52.226562 C 32.722656 52.53125 32.542969 52.804688 32.308594 53.039062 C 32.074219 53.269531 31.804688 53.453125 31.496094 53.578125 C 31.191406 53.707031 30.871094 53.769531 30.542969 53.769531 C 30.210938 53.769531 29.890625 53.707031 29.585938 53.578125 C 29.28125 53.453125 29.011719 53.269531 28.777344 53.039062 C 28.542969 52.804688 28.363281 52.53125 28.234375 52.226562 C 28.109375 51.921875 28.046875 51.601562 28.046875 51.273438 C 28.046875 50.941406 28.109375 50.621094 28.234375 50.316406 C 28.363281 50.011719 28.542969 49.742188 28.777344 49.507812 C 29.011719 49.273438 29.28125 49.09375 29.585938 48.964844 C 29.890625 48.839844 30.210938 48.773438 30.542969 48.773438 C 30.871094 48.773438 31.191406 48.839844 31.496094 48.964844 C 31.804688 49.09375 32.074219 49.273438 32.308594 49.507812 C 32.542969 49.742188 32.722656 50.011719 32.847656 50.316406 C 32.976562 50.621094 33.039062 50.941406 33.039062 51.273438 Z M 33.039062 51.273438 " fill-opacity="1" fill-rule="nonzero"/><path fill="#e2e2e2" d="M 24.121094 57.777344 L 23.410156 58.488281 L 21.476562 60.425781 L 18.625 63.277344 L 15.128906 66.769531 C 13.859375 68.042969 12.585938 69.3125 11.320312 70.578125 L -1.367188 83.265625 C -1.714844 83.613281 -2.070312 83.949219 -2.40625 84.304688 C -2.417969 84.320312 -2.4375 84.339844 -2.453125 84.351562 C -2.761719 84.660156 -2.277344 85.144531 -1.96875 84.835938 L 3.53125 79.335938 L 7.023438 75.839844 L 10.832031 72.03125 C 12.121094 70.742188 13.40625 69.457031 14.695312 68.167969 L 18.300781 64.566406 L 21.34375 61.523438 L 23.519531 59.34375 C 23.867188 59 24.222656 58.660156 24.558594 58.304688 C 24.574219 58.292969 24.589844 58.273438 24.605469 58.261719 C 24.914062 57.949219 24.433594 57.46875 24.121094 57.777344 Z M 24.121094 57.777344 " fill-opacity="1" fill-rule="nonzero"/><g clip-path="url(#d84eb25c99)"><path fill="#e2e2e2" d="M 16.492188 -8.144531 L 29 4.363281 L 34.320312 9.679688 L 39.683594 15.046875 L 44.675781 20.035156 L 48.914062 24.277344 L 51.945312 27.308594 C 52.421875 27.785156 52.882812 28.296875 53.382812 28.746094 C 53.40625 28.765625 53.425781 28.789062 53.449219 28.8125 L 53.449219 28.328125 L 39.703125 42.074219 C 39.070312 42.707031 38.40625 43.316406 37.800781 43.976562 C 37.789062 43.988281 37.78125 43.996094 37.773438 44.003906 C 37.460938 44.316406 37.945312 44.796875 38.253906 44.488281 L 52 30.742188 C 52.632812 30.109375 53.296875 29.5 53.902344 28.839844 C 53.914062 28.828125 53.921875 28.820312 53.929688 28.8125 C 54.0625 28.679688 54.0625 28.460938 53.929688 28.328125 C 53.597656 27.996094 53.265625 27.664062 52.9375 27.335938 L 46.277344 20.675781 L 41.421875 15.816406 L 36.105469 10.5 C 34.3125 8.710938 32.527344 6.925781 30.738281 5.136719 L 25.75 0.144531 L 21.507812 -4.09375 L 18.476562 -7.125 C 18 -7.601562 17.527344 -8.09375 17.039062 -8.566406 C 17.015625 -8.582031 16.996094 -8.605469 16.972656 -8.628906 C 16.664062 -8.9375 16.179688 -8.457031 16.492188 -8.144531 Z M 16.492188 -8.144531 " fill-opacity="1" fill-rule="nonzero"/></g><path fill="#e2e2e2" d="M 32.722656 64.820312 C 32.722656 65.152344 32.660156 65.46875 32.535156 65.777344 C 32.40625 66.082031 32.226562 66.351562 31.992188 66.585938 C 31.757812 66.820312 31.488281 67 31.183594 67.128906 C 30.875 67.253906 30.558594 67.316406 30.226562 67.316406 C 29.894531 67.316406 29.578125 67.253906 29.273438 67.128906 C 28.964844 67 28.695312 66.820312 28.460938 66.585938 C 28.226562 66.351562 28.046875 66.082031 27.921875 65.777344 C 27.792969 65.46875 27.730469 65.152344 27.730469 64.820312 C 27.730469 64.488281 27.792969 64.171875 27.921875 63.867188 C 28.046875 63.558594 28.226562 63.289062 28.460938 63.054688 C 28.695312 62.820312 28.964844 62.640625 29.273438 62.515625 C 29.578125 62.386719 29.894531 62.324219 30.226562 62.324219 C 30.558594 62.324219 30.875 62.386719 31.183594 62.515625 C 31.488281 62.640625 31.757812 62.820312 31.992188 63.054688 C 32.226562 63.289062 32.40625 63.558594 32.535156 63.867188 C 32.660156 64.171875 32.722656 64.488281 32.722656 64.820312 Z M 32.722656 64.820312 " fill-opacity="1" fill-rule="nonzero"/><path fill="#e2e2e2" d="M 23.808594 71.328125 C 23.570312 71.5625 23.335938 71.800781 23.097656 72.039062 L 21.160156 73.972656 L 18.308594 76.824219 L 14.816406 80.320312 L 7.144531 87.992188 L 3.539062 91.59375 L 0.496094 94.640625 L -1.683594 96.816406 C -2.027344 97.164062 -2.382812 97.5 -2.71875 97.855469 C -2.734375 97.867188 -2.753906 97.886719 -2.765625 97.902344 C -3.074219 98.210938 -2.59375 98.695312 -2.285156 98.382812 C -2.046875 98.148438 -1.808594 97.910156 -1.574219 97.671875 L 0.363281 95.738281 L 3.214844 92.886719 C 4.382812 91.71875 5.542969 90.558594 6.710938 89.390625 L 14.382812 81.71875 L 17.984375 78.113281 L 21.027344 75.070312 L 23.207031 72.894531 C 23.554688 72.546875 23.910156 72.210938 24.246094 71.855469 C 24.257812 71.839844 24.277344 71.824219 24.289062 71.808594 C 24.601562 71.5 24.117188 71.015625 23.808594 71.328125 Z M 23.808594 71.328125 " fill-opacity="1" fill-rule="nonzero"/><path fill="#e2e2e2" d="M 16.171875 5.402344 L 17.164062 6.398438 L 19.847656 9.082031 C 21.175781 10.40625 22.5 11.730469 23.828125 13.058594 L 28.683594 17.914062 C 30.453125 19.6875 32.226562 21.457031 34 23.230469 L 51.625 40.855469 C 52.105469 41.335938 52.566406 41.847656 53.066406 42.296875 C 53.089844 42.316406 53.105469 42.335938 53.128906 42.359375 L 53.128906 41.878906 L 47.816406 47.191406 L 43.300781 51.703125 C 41.996094 53.011719 40.6875 54.320312 39.382812 55.621094 C 38.75 56.257812 38.085938 56.867188 37.480469 57.527344 C 37.472656 57.535156 37.460938 57.546875 37.453125 57.554688 C 37.144531 57.863281 37.625 58.347656 37.9375 58.039062 L 39.5 56.476562 L 43.246094 52.726562 L 51.679688 44.292969 C 52.3125 43.660156 52.980469 43.046875 53.585938 42.386719 C 53.59375 42.378906 53.601562 42.371094 53.613281 42.359375 C 53.746094 42.226562 53.746094 42.011719 53.613281 41.878906 C 53.28125 41.546875 52.945312 41.210938 52.621094 40.882812 L 49.9375 38.199219 L 45.957031 34.222656 L 41.101562 29.367188 C 39.328125 27.59375 37.558594 25.824219 35.785156 24.050781 C 34.011719 22.277344 32.210938 20.472656 30.417969 18.683594 L 18.160156 6.425781 C 17.679688 5.945312 17.207031 5.453125 16.71875 4.984375 C 16.695312 4.964844 16.679688 4.945312 16.65625 4.921875 C 16.34375 4.609375 15.863281 5.09375 16.171875 5.402344 Z M 16.171875 5.402344 " fill-opacity="1" fill-rule="nonzero"/><g clip-path="url(#93fa4b975e)"><g clip-path="url(#f64d665b09)"><g clip-path="url(#d3276b0b4f)"><path fill="#e2e2e2" d="M 1473.539062 99.738281 C 1473.507812 99.40625 1473.546875 99.085938 1473.644531 98.769531 C 1473.746094 98.453125 1473.902344 98.167969 1474.113281 97.914062 C 1474.328125 97.660156 1474.582031 97.457031 1474.875 97.304688 C 1475.167969 97.152344 1475.480469 97.0625 1475.808594 97.035156 C 1476.140625 97.003906 1476.460938 97.039062 1476.777344 97.140625 C 1477.09375 97.238281 1477.378906 97.394531 1477.632812 97.609375 C 1477.886719 97.824219 1478.089844 98.074219 1478.242188 98.371094 C 1478.394531 98.664062 1478.484375 98.976562 1478.511719 99.304688 C 1478.542969 99.632812 1478.507812 99.957031 1478.40625 100.273438 C 1478.308594 100.589844 1478.148438 100.875 1477.9375 101.125 C 1477.722656 101.378906 1477.472656 101.582031 1477.175781 101.734375 C 1476.882812 101.890625 1476.570312 101.980469 1476.242188 102.007812 C 1475.914062 102.035156 1475.589844 102 1475.273438 101.902344 C 1474.957031 101.800781 1474.671875 101.644531 1474.421875 101.433594 C 1474.167969 101.21875 1473.964844 100.964844 1473.8125 100.671875 C 1473.65625 100.378906 1473.566406 100.066406 1473.539062 99.738281 Z M 1473.539062 99.738281 " fill-opacity="1" fill-rule="nonzero"/></g></g></g><g clip-path="url(#dc55c8ba6a)"><g clip-path="url(#15a7558b1f)"><g clip-path="url(#f7ddefac44)"><path fill="#e2e2e2" d="M 1481.855469 92.484375 L 1482.503906 91.714844 L 1484.265625 89.617188 L 1486.859375 86.527344 L 1490.035156 82.746094 C 1491.191406 81.367188 1492.347656 79.992188 1493.5 78.621094 C 1494.652344 77.25 1495.839844 75.832031 1497.015625 74.4375 L 1500.292969 70.535156 L 1503.058594 67.238281 L 1505.039062 64.878906 C 1505.355469 64.503906 1505.679688 64.136719 1505.984375 63.753906 C 1505.996094 63.738281 1506.015625 63.71875 1506.027344 63.707031 C 1506.308594 63.371094 1505.785156 62.929688 1505.503906 63.265625 L 1504.859375 64.035156 L 1503.097656 66.132812 L 1500.503906 69.222656 L 1497.324219 73.003906 L 1493.859375 77.128906 C 1492.6875 78.527344 1491.519531 79.917969 1490.347656 81.3125 L 1487.070312 85.214844 L 1484.300781 88.511719 L 1482.320312 90.871094 C 1482.003906 91.246094 1481.679688 91.613281 1481.375 91.996094 C 1481.363281 92.007812 1481.347656 92.03125 1481.332031 92.042969 C 1481.050781 92.378906 1481.574219 92.820312 1481.855469 92.484375 Z M 1481.855469 92.484375 " fill-opacity="1" fill-rule="nonzero"/></g></g></g><g clip-path="url(#7b7ea84f97)"><g clip-path="url(#d91ae3aa9a)"><g clip-path="url(#7989949bbc)"><path fill="#e2e2e2" d="M 1495.179688 157.496094 L 1494.101562 156.59375 L 1491.195312 154.152344 L 1486.890625 150.535156 L 1481.628906 146.117188 C 1479.710938 144.503906 1477.792969 142.894531 1475.875 141.28125 L 1470.0625 136.402344 L 1464.660156 131.863281 L 1460.066406 128.003906 L 1456.785156 125.25 C 1456.265625 124.816406 1455.765625 124.347656 1455.226562 123.941406 C 1455.203125 123.925781 1455.179688 123.902344 1455.15625 123.882812 L 1455.199219 124.363281 L 1456.621094 122.671875 L 1460.03125 118.609375 L 1464.136719 113.722656 L 1467.699219 109.480469 C 1468.277344 108.792969 1468.886719 108.128906 1469.433594 107.417969 C 1469.441406 107.40625 1469.449219 107.398438 1469.457031 107.386719 C 1469.738281 107.050781 1469.214844 106.613281 1468.933594 106.949219 L 1467.511719 108.640625 L 1464.101562 112.699219 L 1459.996094 117.589844 L 1456.433594 121.832031 C 1455.855469 122.519531 1455.246094 123.183594 1454.699219 123.894531 C 1454.691406 123.90625 1454.683594 123.914062 1454.675781 123.925781 C 1454.554688 124.066406 1454.574219 124.285156 1454.71875 124.40625 C 1455.078125 124.707031 1455.4375 125.011719 1455.792969 125.308594 L 1458.699219 127.75 L 1463.007812 131.367188 L 1468.265625 135.785156 L 1474.023438 140.621094 L 1479.835938 145.5 L 1485.238281 150.039062 L 1489.832031 153.894531 L 1493.109375 156.652344 C 1493.628906 157.085938 1494.144531 157.535156 1494.671875 157.960938 C 1494.695312 157.976562 1494.714844 158 1494.738281 158.019531 C 1495.074219 158.300781 1495.515625 157.777344 1495.179688 157.496094 Z M 1495.179688 157.496094 " fill-opacity="1" fill-rule="nonzero"/></g></g></g><g clip-path="url(#8ca791f8cb)"><g clip-path="url(#ebd4b2ccc5)"><g clip-path="url(#b92d94f5b0)"><path fill="#e2e2e2" d="M 1472.679688 86.210938 C 1472.652344 85.882812 1472.6875 85.558594 1472.789062 85.242188 C 1472.886719 84.929688 1473.042969 84.644531 1473.257812 84.390625 C 1473.46875 84.136719 1473.722656 83.933594 1474.015625 83.78125 C 1474.3125 83.628906 1474.621094 83.535156 1474.953125 83.507812 C 1475.28125 83.480469 1475.605469 83.515625 1475.921875 83.613281 C 1476.234375 83.714844 1476.519531 83.871094 1476.773438 84.082031 C 1477.027344 84.296875 1477.230469 84.550781 1477.382812 84.84375 C 1477.535156 85.136719 1477.628906 85.449219 1477.65625 85.777344 C 1477.683594 86.109375 1477.648438 86.429688 1477.550781 86.746094 C 1477.449219 87.0625 1477.292969 87.347656 1477.082031 87.601562 C 1476.867188 87.855469 1476.613281 88.058594 1476.320312 88.210938 C 1476.027344 88.363281 1475.714844 88.453125 1475.386719 88.484375 C 1475.054688 88.511719 1474.734375 88.476562 1474.417969 88.375 C 1474.101562 88.277344 1473.816406 88.121094 1473.5625 87.90625 C 1473.308594 87.695312 1473.105469 87.441406 1472.953125 87.148438 C 1472.800781 86.851562 1472.710938 86.542969 1472.679688 86.210938 Z M 1472.679688 86.210938 " fill-opacity="1" fill-rule="nonzero"/></g></g></g><g clip-path="url(#b33704ce73)"><g clip-path="url(#4bfca1eff3)"><g clip-path="url(#56f793754d)"><path fill="#e2e2e2" d="M 1481 78.957031 L 1481.644531 78.1875 L 1483.40625 76.089844 L 1486 73.003906 L 1489.179688 69.21875 C 1490.335938 67.84375 1491.492188 66.464844 1492.644531 65.09375 L 1496.15625 60.910156 L 1499.433594 57.007812 L 1502.203125 53.710938 L 1504.183594 51.355469 C 1504.5 50.980469 1504.824219 50.613281 1505.128906 50.230469 C 1505.140625 50.214844 1505.15625 50.195312 1505.171875 50.179688 C 1505.453125 49.84375 1504.929688 49.40625 1504.648438 49.742188 L 1504 50.511719 L 1502.238281 52.605469 L 1499.644531 55.695312 L 1496.46875 59.480469 L 1493.003906 63.605469 C 1491.832031 65 1490.660156 66.390625 1489.488281 67.789062 L 1486.210938 71.691406 L 1483.445312 74.984375 L 1481.464844 77.34375 C 1481.148438 77.71875 1480.824219 78.085938 1480.519531 78.46875 C 1480.503906 78.484375 1480.488281 78.503906 1480.476562 78.519531 C 1480.195312 78.855469 1480.71875 79.292969 1481 78.957031 Z M 1481 78.957031 " fill-opacity="1" fill-rule="nonzero"/></g></g></g><g clip-path="url(#1f34ca01ab)"><g clip-path="url(#2abba0779d)"><g clip-path="url(#d1859c8dec)"><path fill="#e2e2e2" d="M 1494.316406 143.972656 L 1493.242188 143.066406 L 1490.335938 140.628906 L 1486.027344 137.007812 L 1480.769531 132.59375 L 1475.011719 127.757812 L 1469.199219 122.875 L 1463.796875 118.335938 L 1459.203125 114.480469 L 1455.921875 111.722656 C 1455.40625 111.289062 1454.902344 110.820312 1454.363281 110.414062 C 1454.339844 110.398438 1454.320312 110.378906 1454.296875 110.355469 L 1454.335938 110.839844 L 1455.757812 109.144531 L 1459.167969 105.085938 L 1463.273438 100.195312 L 1466.839844 95.953125 C 1467.414062 95.265625 1468.023438 94.601562 1468.570312 93.890625 C 1468.578125 93.882812 1468.585938 93.871094 1468.597656 93.863281 C 1468.878906 93.527344 1468.355469 93.085938 1468.074219 93.421875 L 1466.652344 95.113281 L 1463.242188 99.175781 L 1459.136719 104.0625 L 1455.570312 108.308594 C 1454.996094 108.992188 1454.386719 109.660156 1453.839844 110.371094 C 1453.832031 110.378906 1453.824219 110.390625 1453.8125 110.398438 C 1453.695312 110.542969 1453.714844 110.761719 1453.855469 110.878906 C 1454.214844 111.183594 1454.578125 111.484375 1454.933594 111.785156 L 1457.835938 114.222656 L 1462.144531 117.839844 L 1467.402344 122.257812 L 1473.160156 127.09375 C 1475.101562 128.722656 1477.035156 130.347656 1478.972656 131.976562 L 1484.375 136.511719 L 1488.96875 140.371094 L 1492.25 143.125 C 1492.769531 143.5625 1493.28125 144.011719 1493.808594 144.4375 C 1493.832031 144.453125 1493.851562 144.472656 1493.878906 144.492188 C 1494.214844 144.777344 1494.652344 144.253906 1494.316406 143.972656 Z M 1494.316406 143.972656 " fill-opacity="1" fill-rule="nonzero"/></g></g></g><g clip-path="url(#5862190e29)"><g clip-path="url(#89c70ce895)"><g clip-path="url(#b7aa0befc1)"><path fill="#e2e2e2" d="M 1471.820312 72.6875 C 1471.792969 72.355469 1471.828125 72.035156 1471.925781 71.71875 C 1472.027344 71.402344 1472.183594 71.117188 1472.394531 70.863281 C 1472.609375 70.609375 1472.863281 70.40625 1473.15625 70.253906 C 1473.449219 70.101562 1473.761719 70.011719 1474.089844 69.984375 C 1474.421875 69.953125 1474.742188 69.988281 1475.058594 70.089844 C 1475.375 70.1875 1475.660156 70.34375 1475.914062 70.558594 C 1476.167969 70.769531 1476.371094 71.023438 1476.523438 71.316406 C 1476.675781 71.613281 1476.765625 71.921875 1476.792969 72.253906 C 1476.824219 72.582031 1476.789062 72.90625 1476.6875 73.222656 C 1476.589844 73.539062 1476.433594 73.820312 1476.21875 74.074219 C 1476.007812 74.328125 1475.753906 74.53125 1475.460938 74.683594 C 1475.164062 74.835938 1474.855469 74.929688 1474.523438 74.957031 C 1474.195312 74.984375 1473.871094 74.949219 1473.554688 74.851562 C 1473.238281 74.75 1472.957031 74.59375 1472.703125 74.382812 C 1472.449219 74.167969 1472.246094 73.914062 1472.09375 73.621094 C 1471.941406 73.328125 1471.847656 73.015625 1471.820312 72.6875 Z M 1471.820312 72.6875 " fill-opacity="1" fill-rule="nonzero"/></g></g></g><g clip-path="url(#5fb4566469)"><g clip-path="url(#f46347620b)"><g clip-path="url(#55104e36f4)"><path fill="#e2e2e2" d="M 1480.136719 65.433594 C 1480.355469 65.175781 1480.570312 64.917969 1480.785156 64.664062 L 1482.546875 62.566406 L 1485.140625 59.476562 L 1488.316406 55.691406 L 1491.78125 51.570312 L 1495.296875 47.386719 L 1498.574219 43.484375 L 1501.339844 40.1875 L 1503.324219 37.828125 C 1503.636719 37.453125 1503.960938 37.085938 1504.265625 36.703125 C 1504.28125 36.6875 1504.296875 36.667969 1504.308594 36.65625 C 1504.589844 36.320312 1504.066406 35.878906 1503.785156 36.214844 C 1503.570312 36.472656 1503.355469 36.726562 1503.140625 36.984375 L 1501.378906 39.082031 L 1498.785156 42.171875 C 1497.722656 43.433594 1496.667969 44.691406 1495.605469 45.953125 L 1492.140625 50.078125 L 1488.628906 54.261719 L 1485.351562 58.164062 L 1482.582031 61.460938 L 1480.601562 63.820312 C 1480.285156 64.195312 1479.960938 64.558594 1479.65625 64.945312 C 1479.644531 64.957031 1479.628906 64.976562 1479.617188 64.992188 C 1479.332031 65.328125 1479.855469 65.769531 1480.136719 65.433594 Z M 1480.136719 65.433594 " fill-opacity="1" fill-rule="nonzero"/></g></g></g><g clip-path="url(#86207e1a8f)"><g clip-path="url(#3e93c82475)"><g clip-path="url(#1e1729b926)"><path fill="#e2e2e2" d="M 1493.460938 130.445312 L 1492.382812 129.542969 L 1489.480469 127.101562 C 1488.042969 125.894531 1486.605469 124.691406 1485.171875 123.484375 L 1479.914062 119.066406 C 1477.992188 117.453125 1476.074219 115.84375 1474.15625 114.230469 L 1468.34375 109.347656 L 1462.941406 104.8125 L 1458.347656 100.953125 L 1455.066406 98.199219 C 1454.546875 97.761719 1454.046875 97.296875 1453.507812 96.890625 C 1453.484375 96.875 1453.464844 96.851562 1453.4375 96.832031 L 1453.480469 97.3125 L 1454.902344 95.621094 L 1458.3125 91.558594 L 1462.417969 86.671875 C 1463.609375 85.253906 1464.796875 83.839844 1465.980469 82.425781 C 1466.558594 81.742188 1467.167969 81.074219 1467.714844 80.367188 C 1467.722656 80.355469 1467.730469 80.34375 1467.738281 80.335938 C 1468.019531 80 1467.496094 79.5625 1467.214844 79.894531 L 1465.792969 81.589844 L 1462.382812 85.648438 L 1458.277344 90.539062 L 1454.714844 94.78125 C 1454.136719 95.46875 1453.527344 96.132812 1452.980469 96.84375 C 1452.972656 96.851562 1452.964844 96.863281 1452.957031 96.875 C 1452.835938 97.015625 1452.855469 97.234375 1453 97.355469 C 1453.359375 97.65625 1453.71875 97.960938 1454.074219 98.257812 L 1456.980469 100.699219 L 1461.289062 104.316406 L 1466.546875 108.734375 C 1468.464844 110.34375 1470.386719 111.957031 1472.304688 113.570312 C 1474.222656 115.179688 1476.175781 116.820312 1478.117188 118.449219 L 1483.519531 122.988281 L 1488.113281 126.84375 L 1491.394531 129.601562 C 1491.910156 130.035156 1492.425781 130.484375 1492.953125 130.910156 C 1492.976562 130.925781 1492.996094 130.949219 1493.019531 130.96875 C 1493.355469 131.25 1493.796875 130.726562 1493.460938 130.445312 Z M 1493.460938 130.445312 " fill-opacity="1" fill-rule="nonzero"/></g></g></g></svg>